<?xml version="1.0" encoding="UTF-8" standalone="no"?><svg xmlns="http://www.w3.org/2000/svg" xmlns:xlink="http://www.w3.org/1999/xlink" contentScriptType="application/ecmascript" contentStyleType="text/css" height="292px" preserveAspectRatio="none" style="width:836px;height:292px;" version="1.1" viewBox="0 0 836 292" width="836px" zoomAndPan="magnify"><defs><filter height="300%" id="f12yx8yut270bf" width="300%" x="-1" y="-1"><feGaussianBlur result="blurOut" stdDeviation="2.0"/><feColorMatrix in="blurOut" result="blurOut2" type="matrix" values="0 0 0 0 0 0 0 0 0 0 0 0 0 0 0 0 0 0 .4 0"/><feOffset dx="4.0" dy="4.0" in="blurOut2" result="blurOut3"/><feBlend in="SourceGraphic" in2="blurOut3" mode="normal"/></filter></defs><g><rect fill="#FEFECE" filter="url(#f12yx8yut270bf)" height="36.2969" rx="12.5" ry="12.5" style="stroke: #A80036; stroke-width: 1.5;" width="157" x="10" y="132.5938"/><text fill="#000000" font-family="sans-serif" font-size="14" lengthAdjust="spacingAndGlyphs" textLength="137" x="20" y="155.5889">Sprot_decision_tree</text><rect fill="#FEFECE" filter="url(#f12yx8yut270bf)" height="36.2969" rx="12.5" ry="12.5" style="stroke: #A80036; stroke-width: 1.5;" width="148" x="217" y="48.1484"/><text fill="#000000" font-family="sans-serif" font-size="14" lengthAdjust="spacingAndGlyphs" textLength="128" x="227" y="71.1436">feature_2 &lt;= 0,50</text><rect fill="#FEFECE" filter="url(#f12yx8yut270bf)" height="36.2969" rx="12.5" ry="12.5" style="stroke: #A80036; stroke-width: 1.5;" width="157" x="415" y="20"/><text fill="#000000" font-family="sans-serif" font-size="14" lengthAdjust="spacingAndGlyphs" textLength="137" x="425" y="42.9951">feature_1 &lt;= 12,50</text><rect fill="#FEFECE" filter="url(#f12yx8yut270bf)" height="36.2969" rx="12.5" ry="12.5" style="stroke: #A80036; stroke-width: 1.5;" width="51" x="622" y="20"/><text fill="#000000" font-family="sans-serif" font-size="14" lengthAdjust="spacingAndGlyphs" textLength="31" x="632" y="42.9951">Nein</text><path d="M572,38.1484 L582,38.1484 C597,38.1484 597,38.1484 612,38.1484 L622,38.1484 " fill="none" style="stroke: #A80036; stroke-width: 1.0;"/><path d="M365,66.2969 L375,66.2969 C390,66.2969 390,38.1484 405,38.1484 L415,38.1484 " fill="none" style="stroke: #A80036; stroke-width: 1.0;"/><rect fill="#FEFECE" filter="url(#f12yx8yut270bf)" height="36.2969" rx="12.5" ry="12.5" style="stroke: #A80036; stroke-width: 1.5;" width="145" x="415" y="76.2969"/><text fill="#000000" font-family="sans-serif" font-size="14" lengthAdjust="spacingAndGlyphs" textLength="125" x="425" y="99.292">feature_1 &gt; 12,50</text><rect fill="#FEFECE" filter="url(#f12yx8yut270bf)" height="36.2969" rx="12.5" ry="12.5" style="stroke: #A80036; stroke-width: 1.5;" width="31" x="610" y="76.2969"/><text fill="#000000" font-family="sans-serif" font-size="14" lengthAdjust="spacingAndGlyphs" textLength="11" x="620" y="99.292">Ja</text><path d="M560,94.4453 L570,94.4453 C585,94.4453 585,94.4453 600,94.4453 L610,94.4453 " fill="none" style="stroke: #A80036; stroke-width: 1.0;"/><path d="M365,66.2969 L375,66.2969 C390,66.2969 390,94.4453 405,94.4453 L415,94.4453 " fill="none" style="stroke: #A80036; stroke-width: 1.0;"/><path d="M167,150.7422 L177,150.7422 C192,150.7422 192,66.2969 207,66.2969 L217,66.2969 " fill="none" style="stroke: #A80036; stroke-width: 1.0;"/><rect fill="#FEFECE" filter="url(#f12yx8yut270bf)" height="36.2969" rx="12.5" ry="12.5" style="stroke: #A80036; stroke-width: 1.5;" width="136" x="217" y="188.8906"/><text fill="#000000" font-family="sans-serif" font-size="14" lengthAdjust="spacingAndGlyphs" textLength="116" x="227" y="211.8857">feature_2 &gt; 0,50</text><rect fill="#FEFECE" filter="url(#f12yx8yut270bf)" height="36.2969" rx="12.5" ry="12.5" style="stroke: #A80036; stroke-width: 1.5;" width="148" x="403" y="132.5938"/><text fill="#000000" font-family="sans-serif" font-size="14" lengthAdjust="spacingAndGlyphs" textLength="128" x="413" y="155.5889">feature_0 &lt;= 1,50</text><rect fill="#FEFECE" filter="url(#f12yx8yut270bf)" height="36.2969" rx="12.5" ry="12.5" style="stroke: #A80036; stroke-width: 1.5;" width="51" x="601" y="132.5938"/><text fill="#000000" font-family="sans-serif" font-size="14" lengthAdjust="spacingAndGlyphs" textLength="31" x="611" y="155.5889">Nein</text><path d="M551,150.7422 L561,150.7422 C576,150.7422 576,150.7422 591,150.7422 L601,150.7422 " fill="none" style="stroke: #A80036; stroke-width: 1.0;"/><path d="M353,207.0391 L363,207.0391 C378,207.0391 378,150.7422 393,150.7422 L403,150.7422 " fill="none" style="stroke: #A80036; stroke-width: 1.0;"/><rect fill="#FEFECE" filter="url(#f12yx8yut270bf)" height="36.2969" rx="12.5" ry="12.5" style="stroke: #A80036; stroke-width: 1.5;" width="136" x="403" y="217.0391"/><text fill="#000000" font-family="sans-serif" font-size="14" lengthAdjust="spacingAndGlyphs" textLength="116" x="413" y="240.0342">feature_0 &gt; 1,50</text><rect fill="#FEFECE" filter="url(#f12yx8yut270bf)" height="36.2969" rx="12.5" ry="12.5" style="stroke: #A80036; stroke-width: 1.5;" width="135" x="589" y="188.8906"/><text fill="#000000" font-family="sans-serif" font-size="14" lengthAdjust="spacingAndGlyphs" textLength="115" x="599" y="211.8857">feature_1 &lt;= 20</text><rect fill="#FEFECE" filter="url(#f12yx8yut270bf)" height="36.2969" rx="12.5" ry="12.5" style="stroke: #A80036; stroke-width: 1.5;" width="51" x="774" y="188.8906"/><text fill="#000000" font-family="sans-serif" font-size="14" lengthAdjust="spacingAndGlyphs" textLength="31" x="784" y="211.8857">Nein</text><path d="M724,207.0391 L734,207.0391 C749,207.0391 749,207.0391 764,207.0391 L774,207.0391 " fill="none" style="stroke: #A80036; stroke-width: 1.0;"/><path d="M539,235.1875 L549,235.1875 C564,235.1875 564,207.0391 579,207.0391 L589,207.0391 " fill="none" style="stroke: #A80036; stroke-width: 1.0;"/><rect fill="#FEFECE" filter="url(#f12yx8yut270bf)" height="36.2969" rx="12.5" ry="12.5" style="stroke: #A80036; stroke-width: 1.5;" width="123" x="589" y="245.1875"/><text fill="#000000" font-family="sans-serif" font-size="14" lengthAdjust="spacingAndGlyphs" textLength="103" x="599" y="268.1826">feature_1 &gt; 20</text><rect fill="#FEFECE" filter="url(#f12yx8yut270bf)" height="36.2969" rx="12.5" ry="12.5" style="stroke: #A80036; stroke-width: 1.5;" width="31" x="762" y="245.1875"/><text fill="#000000" font-family="sans-serif" font-size="14" lengthAdjust="spacingAndGlyphs" textLength="11" x="772" y="268.1826">Ja</text><path d="M712,263.3359 L722,263.3359 C737,263.3359 737,263.3359 752,263.3359 L762,263.3359 " fill="none" style="stroke: #A80036; stroke-width: 1.0;"/><path d="M539,235.1875 L549,235.1875 C564,235.1875 564,263.3359 579,263.3359 L589,263.3359 " fill="none" style="stroke: #A80036; stroke-width: 1.0;"/><path d="M353,207.0391 L363,207.0391 C378,207.0391 378,235.1875 393,235.1875 L403,235.1875 " fill="none" style="stroke: #A80036; stroke-width: 1.0;"/><path d="M167,150.7422 L177,150.7422 C192,150.7422 192,207.0391 207,207.0391 L217,207.0391 " fill="none" style="stroke: #A80036; stroke-width: 1.0;"/><!--MD5=[f7abfef3bbf252ddd0ef6ad14fe110f1]
@startmindmap
+ Sprot_decision_tree
++ feature_2 <= 0,50
+++ feature_1 <= 12,50
++++ Nein
+++ feature_1 > 12,50
++++ Ja
++ feature_2 > 0,50
+++ feature_0 <= 1,50
++++ Nein
+++ feature_0 > 1,50
++++ feature_1 <= 20
+++++ Nein
++++ feature_1 > 20
+++++ Ja
@endmindmap

PlantUML version 1.2020.02(Sun Mar 01 10:22:07 UTC 2020)
(GPL source distribution)
Java Runtime: OpenJDK Runtime Environment
JVM: OpenJDK 64-Bit Server VM
Java Version: 18.0.2-ea+9-Ubuntu-222.04
Operating System: Linux
Default Encoding: UTF-8
Language: de
Country: DE
--></g></svg>